<svg version="1.2" baseProfile="tiny" xmlns="http://www.w3.org/2000/svg" viewBox="0 0 90 90" xml:space="preserve"><path d="M89 40.6S78.9 4.9 45 4.9 1 40.3 1 40.3s26.4 26.4 35.8 35.3c-3.9 12.9 18.8 14.8 16.8 0 16.8-14.8 35.4-35 35.4-35zM45.2 57.9c-6.4 0-6.4-10 0-10s6.4 10 0 10z"/><path fill="#FFF" d="M74.2 52.2s.1-26-29.2-26-29.1 25.5-29.1 25.5 14.8 15.8 22.9 23.5c-1.7 5.8 1.7 9 6.1 9 4.1 0 7.2-2.8 6.4-9 14.7-12.8 22.9-23 22.9-23zm-29 5.7c-6.4 0-6.4-10 0-10s6.4 10 0 10z"/><path fill="#010202" d="m62.942 52.905 2.475-2.475 2.475 2.475-2.475 2.475zM42.871 32.736l2.475-2.475 2.475 2.475-2.475 2.475zM22.631 52.878l2.475-2.475 2.475 2.475-2.475 2.475zM43.3 76.6v-3h4v3l-2 2zM59.3 49.4 48.8 38.9c-.8.8-2 1.4-3.5 1.4s-2.6-.5-3.4-1.4L31.3 49.4c1.7 1.9 1.6 5.1 0 7l10.4 10.4c.8-.8 1.9-1.4 3.5-1.4s2.8.6 3.6 1.5l10.5-10.5c-1.8-1.8-1.7-5.1 0-7zm-14.1 8.5c-6.4 0-6.4-10 0-10s6.4 10 0 10z"/></svg>