<svg version="1.2" baseProfile="tiny" xmlns="http://www.w3.org/2000/svg" viewBox="0 0 90 90" xml:space="preserve"><path d="M45.6 80.5H20.4c-5.5 0-6.2-.6-6.1-6.3.1-13.2 5.2-23.6 17.2-29.8.3-.2.6-.3.9-.4 1.4-.7 1.4-1.5.3-2.6-2.2-2.2-3.8-4.9-4.8-7.9-2.7-7.8 1.7-17.4 8.7-21 6.5-3.5 13.1-3.4 19.2.5 5.9 3.8 8.9 9.6 8.3 16.8-.3 3.9-1.9 7.3-4.4 10.2-2.4 2.9-2.3 2.7 1 4.9 3 2 6 4.2 8.4 6.7 6.8 7.2 8.4 16.1 7.7 25.6-.2 2.2-1.4 3.2-4.1 3.2-5.8.1-11.5 0-17.3 0-3.2.1-6.5.1-9.8.1zm.2-4.6H70c2.7 0 3.3-.6 3.1-3.2-.3-2.6-.6-5.2-1.3-7.7C68.1 52.9 57.5 45.6 44 45.9c-13.2.3-26.3 12.4-25.3 27.3.2 2.5.2 2.7 3 2.7 8 .1 16 0 24.1 0zm13.8-47.6c.7-6.4-5.6-13.8-13.6-13.9-7.7-.1-14.3 6.3-14.4 13.8 0 7.3 6.3 14 13.8 13.9 8.8 0 14.7-7.4 14.2-13.8z"/><path d="M2 63.7c-.2-8.8 4-15.3 10.9-20.3 2.2-1.6 2.2-1.6.8-4.1-4.8-8.6-1.5-18.5 7.4-21.8 1.2-.5 2.5-.6 3.8-.8.8-.1 1.7-.1.9 1.3-1.4 2.4-2.9 4.5-5.3 6.2-6.2 4.1-5.7 10.9-.2 15.2.8.6 1.7 1 2.5 1.6 1.5 1.3 1.2 3.1-.5 4-1.1.6-2.5.9-3.7 1.3-7.3 2.9-12 9.8-11.7 17.1 0 1.4 0 2.6 1.8 2.9 2 .3 1.3 1.9 1.2 3.1-.1 1.3-1 1.5-2.1 1.5-5 .4-5.7-.3-5.8-5.3v-1.9zM88.7 64.7c.2-8.8-4-15.3-10.9-20.4-2.2-1.6-2.2-1.6-.8-4.1 4.8-8.6 1.5-18.5-7.4-21.9-1.2-.5-2.5-.6-3.8-.8-.8-.1-1.7-.1-.9 1.3 1.4 2.4 2.9 4.5 5.3 6.2 6.2 4.1 5.7 10.9.2 15.2-.8.6-1.7 1-2.5 1.6-1.5 1.3-1.2 3.1.5 4 1.1.6 2.5.9 3.7 1.3C79.4 50 84 57 83.8 64.3c0 1.4 0 2.6-1.8 2.9-2 .3-1.3 1.9-1.2 3.1.1 1.3 1 1.5 2.1 1.6 5 .4 5.7-.3 5.8-5.3v-1.9z"/></svg>