<svg version="1.2" baseProfile="tiny" xmlns="http://www.w3.org/2000/svg" viewBox="0 0 90 90" xml:space="preserve"><path d="M89 40.6S78.9 4.9 45 4.9 1 40.3 1 40.3l35.8 35.3s-3.5 10.9 8.5 10.9 8.3-10.9 8.3-10.9l35.4-35zM45.2 57.9c-6.4 0-6.4-10 0-10s6.4 10 0 10z"/><path fill="#FFF" d="M74.2 52.2s.1-26-29.2-26-29.1 25.5-29.1 25.5l22.9 22.5s-4.2 10 6.5 10 6-10 6-10l22.9-22zm-29 5.7c-6.4 0-6.4-10 0-10s6.4 10 0 10z"/><path fill="#010202" d="m62.9 52.9 2.5-2.5 2.5 2.5-2.5 2.5-2.5-2.5zm-20-20.2 2.5-2.5 2.5 2.5-2.5 2.5-2.5-2.5zM22.6 52.9l2.5-2.5 2.5 2.5-2.5 2.5-2.5-2.5zm20.7 23.7v-3h4v3l-2 2-2-2zm16-27.2L48.8 38.9c-.8.8-2 1.4-3.5 1.4s-2.6-.5-3.4-1.4L31.3 49.4c1.7 1.9 1.6 5.1 0 7l10.4 10.4c.8-.8 1.9-1.4 3.5-1.4s2.8.6 3.6 1.5l10.5-10.5c-1.8-1.8-1.7-5.1 0-7zm-14.1 8.5c-6.4 0-7.1-10 0-10s6.4 10 0 10z"/></svg>