<svg version="1.2" baseProfile="tiny" xmlns="http://www.w3.org/2000/svg" viewBox="0 0 90 90" xml:space="preserve"><path d="M1.1 38.8v-30c0-3.5.4-3.8 4-3.8H59c.7 0 1.4-.1 2 0 1.2.2 2 1 2 2.3 0 2.7.1 5.3 0 8 0 1.3.3 1.7 1.6 1.7 4.5-.1 9 .3 13.5-.1 7.7-.6 10 4.1 10.8 10.9.4 2.9.1 6 .1 9 0 10-.1 20 0 30 0 3.9-.6 7.5-2 11.2-1.4 3.6-2.7 5.7-5.6 7-2.9 1.4-5.8 2.1-9.2 2.1-18.2-.2-36.5-.1-54.8-.1-6.8 0-11.9-2.8-14.4-9.5-.4-1.2-2-7.8-2-9.2.1-9.8.1-19.7.1-29.5zm58 4.2V11.5C59.1 9 59 9 56.8 9H7.3c-2.2 0-2.2 0-2.2 2.6v57c0 2.5.6 5.1 1 7.6 0 .3.3.5.4.8 2.6 4 6.1 6 10.4 6 14.7.1 29.3 0 44 0 .6 0 1.3-.2 1.9-.2-.4-.6-.9-1.1-1.3-1.8-1.4-2.7-2.7-5.2-2.6-8.5.3-9.8.2-19.7.2-29.5zm4 5.1c0 8 .2 16-.1 24-.1 3.7 1.3 6.4 4 8.3 2.6 1.8 5.6 3.1 8.8 2.6 2.8-.4 5.1-1.7 6.8-4 .6-.8 2.4-7 2.4-8.5V27.6c0-2.1-.9-3.7-2.2-5.1-1.8-2.1-4.7-1.9-6.8 0-1.2 1.1-1 2.3-1 3.6V66c0 1.2.3 2.4-.1 3.5-.4 1-1.3 1.8-2.7 1.7-1.7-.1-1.2-1.2-1.2-2.1V25.7c0-.8.1-1.6.3-2.4.7-2.3.7-2.3-1.1-2.3s-3.7.1-5.5 0c-1.3-.1-1.7.3-1.7 1.6.1 8.5.1 17 .1 25.5z"/><path d="M31.6 20H48c.7 0 1.7-.5 2 .8.3 1.1-.6 3-1.6 3.2-.8.1-1.7 0-2.5 0H15.1c-2.4 0-3.9-.7-4-1.8-.2-1.3 1.4-2.2 4.2-2.2h16.3zM31.3 27h16.9c.7 0 1.7-.4 1.9.9.2 1.3-.4 2.3-1.4 2.9-.5.3-1.3.2-1.9.2H14c-1.6.2-2.5-.6-2.9-2-.2-.9 1.3-2 2.8-2h17.4zM19.8 45h-5.5c-1.3 0-2.3-.9-2.2-2.1.1-1.1 1-1.9 2.4-1.9 3.7.1 7.3.1 11 0 1.4 0 2.3.8 2.4 1.9.1 1.2-.9 2.1-2.2 2.1h-5.9zM41.9 45h-5.5c-1.3 0-2.3-.9-2.2-2.1.1-1.1 1-1.9 2.4-1.9 3.7.1 7.3.1 11 0 1.4 0 2.3.8 2.4 1.9.1 1.2-.9 2.1-2.2 2.1h-5.9zM19.8 52.8h-5.5c-1.3 0-2.3-.9-2.2-2.1.1-1.1 1-1.9 2.4-1.9 3.7.1 7.3.1 11 0 1.4 0 2.3.8 2.4 1.9.1 1.2-.9 2.1-2.2 2.1h-5.9zM41.9 52.8h-5.5c-1.3 0-2.3-.9-2.2-2.1.1-1.1 1-1.9 2.4-1.9 3.7.1 7.3.1 11 0 1.4 0 2.3.8 2.4 1.9.1 1.2-.9 2.1-2.2 2.1h-5.9zM19.8 59.6h-5.5c-1.3 0-2.3-.9-2.2-2.1.1-1.1 1-1.9 2.4-1.9 3.7.1 7.3.1 11 0 1.4 0 2.3.8 2.4 1.9.1 1.2-.9 2.1-2.2 2.1h-5.9zM41.9 59.6h-5.5c-1.3 0-2.3-.9-2.2-2.1.1-1.1 1-1.9 2.4-1.9 3.7.1 7.3.1 11 0 1.4 0 2.3.8 2.4 1.9.1 1.2-.9 2.1-2.2 2.1h-5.9zM19.8 66.8h-5.5c-1.3 0-2.3-.9-2.2-2.1.1-1.1 1-1.9 2.4-1.9 3.7.1 7.3.1 11 0 1.4 0 2.3.8 2.4 1.9.1 1.2-.9 2.1-2.2 2.1h-5.9zM41.9 66.8h-5.5c-1.3 0-2.3-.9-2.2-2.1.1-1.1 1-1.9 2.4-1.9 3.7.1 7.3.1 11 0 1.4 0 2.3.8 2.4 1.9.1 1.2-.9 2.1-2.2 2.1h-5.9zM19.8 73.9h-5.5c-1.3 0-2.3-.9-2.2-2.1.1-1.1 1-1.9 2.4-1.9 3.7.1 7.3.1 11 0 1.4 0 2.3.8 2.4 1.9.1 1.2-.9 2.1-2.2 2.1h-5.9zM41.9 73.9h-5.5c-1.3 0-2.3-.9-2.2-2.1.1-1.1 1-1.9 2.4-1.9 3.7.1 7.3.1 11 0 1.4 0 2.3.8 2.4 1.9.1 1.2-.9 2.1-2.2 2.1h-5.9z"/></svg>