<svg version="1.2" baseProfile="tiny" xmlns="http://www.w3.org/2000/svg" viewBox="0 0 90 90" xml:space="preserve"><path d="M65.5 2.3c7.2 0 11.3 2.7 13.8 8.6 2.4 5.8 1.5 11.1-2.9 15.6-7.6 7.7-15.3 15.4-23 23C50 52.9 45.8 54 41 53.1c-.7-.1-1.9-.8-1.9-1.2 0-.8.5-2 1.2-2.4 1.2-.7 2.6-1.3 4-1.5 2.5-.4 4.6-1.4 6.3-3.2 7.2-7.2 14.5-14.3 21.6-21.6 5.4-5.6 3.5-13-3.6-15.5-2.1-.7-4.2-.7-6.1.4-1.8 1.1-3.6 2.2-5.1 3.7-6.2 6.1-12.4 12.3-18.6 18.5-2.4 2.3-4.1 5-4.6 8.3-.1.5 0 1.1-.3 1.4-1 1.2-2.1 3.2-3.2 3.2-1.8 0-1.2-2.2-1.3-3.6-.6-4.7 1.2-8.6 4.4-11.8 6.9-7 13.9-14 20.9-20.9 3.2-3.1 6.8-5.3 10.8-4.6z"/><path d="M26.3 87.7c-6.6.2-11.1-2.5-13.8-8C9.9 74.2 11 68 15.3 63.6c7.6-7.7 15.3-15.3 23-23 3.5-3.4 7.7-4.5 12.5-3.7.8.1 2.1.9 2.1 1.5.1.7-.7 1.8-1.4 2.3-1 .7-2.3 1.2-3.5 1.3-2.7.3-4.9 1.5-6.8 3.4C34.1 52.5 27 59.5 20 66.7c-4.5 4.6-4.4 10.3 0 14 3.6 3 7.8 3 11.5-.1 2.4-2.1 4.6-4.5 6.9-6.8 5-5 10-10.1 15.1-15.1 2-2 3.6-4.2 4.1-7 .1-.8.2-1.7.7-2.3.9-1 2.1-1.8 3.1-2.7.4 1.1 1 2.3 1.1 3.4.3 4.4-.9 8.2-4.2 11.4-7.6 7.2-14.8 14.5-22.1 21.9-2.9 3-6.3 4.4-9.9 4.3z"/></svg>